<svg 
 xmlns="http://www.w3.org/2000/svg"
 xmlns:xlink="http://www.w3.org/1999/xlink"
 width="30px" height="30px">
<path fill-rule="evenodd"  fill="currentColor"
 d="M30.000,14.969 C30.000,23.424 23.111,30.000 14.969,30.000 C9.457,30.000 2.818,26.806 0.564,19.228 C0.376,18.539 -0.000,16.910 -0.000,16.033 L-0.000,13.904 C0.939,4.635 8.267,-0.000 14.969,-0.000 C23.486,-0.000 30.000,6.827 30.000,14.969 ZM27.996,14.969 C27.996,17.349 27.307,19.916 25.804,22.234 C22.484,18.914 18.413,17.724 14.969,17.724 C11.461,17.724 7.641,18.914 4.259,22.234 C3.069,21.044 2.004,17.474 2.004,15.846 L2.004,14.154 C2.756,6.200 9.019,2.004 14.969,2.004 C22.296,2.004 27.996,7.829 27.996,14.969 ZM20.981,10.021 C20.981,13.278 18.288,15.971 15.031,15.971 C12.777,15.971 10.271,14.781 9.207,11.587 C9.144,11.273 9.019,10.710 9.019,10.585 L9.019,9.457 C9.520,5.699 12.338,4.008 15.031,4.008 C18.413,4.008 20.981,6.827 20.981,10.021 Z"/>
</svg>