<svg xmlns="http://www.w3.org/2000/svg" xmlns:xlink="http://www.w3.org/1999/xlink" width="31px" height="30px">
  <path fill-rule="evenodd" fill="currentColor" d="M11.834,0.018 C12.562,-0.158 14.138,1.015 14.138,1.954 L14.138,11.752 C14.199,12.280 12.925,13.688 12.137,13.688 L2.009,13.688 C1.100,13.688 0.008,12.397 0.008,11.634 L0.008,2.071 C-0.053,1.132 1.342,-0.100 2.252,0.018 L11.834,0.018 ZM28.693,0.018 C29.603,-0.100 30.998,1.191 30.998,2.071 L30.998,11.576 C31.058,12.338 29.846,13.688 28.936,13.688 L18.808,13.688 C18.202,13.746 16.867,12.514 16.867,11.810 L16.867,1.954 C16.807,1.132 18.202,-0.158 19.111,0.018 L28.693,0.018 ZM12.016,16.328 C12.743,16.211 14.138,17.443 14.138,18.205 L14.138,28.003 C14.138,28.883 12.804,29.998 11.955,29.998 L2.131,29.998 C1.160,29.998 0.008,28.707 0.008,27.944 L0.008,18.381 C-0.113,17.619 1.160,16.211 2.131,16.328 L12.016,16.328 ZM28.815,16.328 C29.724,16.211 30.998,17.501 30.998,18.381 L30.998,27.886 C30.998,28.825 29.664,29.998 28.815,29.998 L18.990,29.998 C18.202,30.057 16.867,28.825 16.867,28.062 L16.867,18.205 C16.867,17.443 18.202,16.211 18.929,16.328 L28.815,16.328 Z"/>
</svg>