<svg 
 xmlns="http://www.w3.org/2000/svg"
 xmlns:xlink="http://www.w3.org/1999/xlink"
 width="30px" height="27px">
<path fill-rule="evenodd"  fill="currentColor"
 d="M27.534,0.002 C28.767,0.055 30.000,1.169 30.000,2.070 L30.000,6.314 L-0.000,6.314 L-0.000,2.070 C-0.000,1.063 1.468,-0.051 2.407,0.002 L27.534,0.002 ZM5.284,3.927 C5.284,4.457 4.755,4.723 4.403,4.723 C3.757,4.723 3.581,4.245 3.581,3.927 C3.581,3.503 3.875,3.184 4.403,3.184 C5.049,3.184 5.284,3.609 5.284,3.927 ZM8.806,3.927 C8.806,4.457 8.278,4.723 7.926,4.723 C7.280,4.723 7.104,4.245 7.104,3.927 C7.104,3.503 7.397,3.184 7.926,3.184 C8.571,3.184 8.806,3.609 8.806,3.927 ZM12.329,3.927 C12.329,4.457 11.800,4.723 11.448,4.723 C10.802,4.723 10.626,4.245 10.626,3.927 C10.626,3.503 10.920,3.184 11.448,3.184 C12.094,3.184 12.329,3.609 12.329,3.927 ZM25.597,3.184 C26.066,3.290 26.419,3.556 26.419,3.927 C26.419,4.245 26.066,4.723 25.714,4.723 L20.078,4.723 C19.609,4.510 19.432,4.245 19.432,3.927 C19.432,3.556 19.726,3.290 20.196,3.184 L25.597,3.184 ZM30.000,7.958 L30.000,24.878 C29.941,25.833 28.650,27.000 27.652,27.000 L2.290,27.000 C0.998,26.788 -0.000,25.780 -0.000,24.825 L-0.000,7.958 L30.000,7.958 ZM18.493,11.088 C18.493,11.247 17.847,12.520 17.554,13.209 C16.027,16.339 14.618,19.574 12.975,22.757 C12.857,22.969 12.505,23.022 12.329,23.022 C11.683,23.022 11.507,22.545 11.507,22.226 C11.507,22.120 12.094,20.794 12.387,20.158 C13.855,17.028 15.264,13.846 16.849,10.769 C17.025,10.345 17.319,10.345 17.612,10.345 C18.258,10.345 18.493,10.769 18.493,11.088 ZM10.567,13.474 C10.567,13.633 10.509,13.846 10.333,14.005 C9.217,14.853 7.984,15.755 6.751,16.657 C7.338,17.134 8.043,17.612 8.747,18.142 C9.276,18.619 10.567,19.203 10.567,19.839 C10.567,20.370 10.039,20.635 9.687,20.635 C9.041,20.635 5.812,17.983 4.755,17.240 C4.462,17.081 4.462,16.816 4.462,16.657 C4.462,16.551 4.462,16.286 4.638,16.179 C5.284,15.596 6.106,15.119 6.869,14.535 C7.632,14.005 8.336,13.421 9.158,12.891 C9.276,12.785 9.569,12.732 9.687,12.732 C10.333,12.732 10.567,13.156 10.567,13.474 ZM25.303,16.126 C25.421,16.232 25.538,16.551 25.538,16.657 C25.538,16.816 25.479,17.028 25.303,17.187 C24.540,17.771 23.601,18.407 22.838,18.991 C22.192,19.468 21.487,19.998 20.841,20.423 C20.665,20.529 20.430,20.635 20.254,20.635 C19.609,20.635 19.432,20.158 19.432,19.839 C19.432,19.733 19.432,19.468 19.609,19.362 C20.724,18.460 22.016,17.612 23.248,16.710 C22.720,16.232 22.074,15.808 21.546,15.384 C20.841,14.853 19.432,14.164 19.432,13.474 C19.432,12.997 19.726,12.732 20.254,12.732 C20.900,12.732 24.834,15.702 25.303,16.126 Z"/>
</svg>