<svg 
 xmlns="http://www.w3.org/2000/svg"
 xmlns:xlink="http://www.w3.org/1999/xlink"
 width="30px" height="30px">
<path fill-rule="evenodd"  fill="currentColor"
 d="M16.309,0.008 C17.517,-0.126 19.262,1.484 19.262,2.759 L19.262,30.000 L12.886,30.000 L12.886,22.217 C12.752,21.948 12.282,21.412 11.946,21.412 L7.248,21.412 C6.913,21.546 6.376,22.083 6.376,22.284 L6.376,30.000 L0.805,30.000 C0.537,29.799 -0.000,29.396 -0.000,29.195 L-0.000,2.759 C-0.000,1.551 1.678,-0.059 2.886,0.008 L16.309,0.008 ZM8.523,6.382 C8.523,7.791 6.846,7.456 6.376,7.456 C5.705,7.456 4.295,7.724 4.295,6.382 C4.295,5.040 5.906,5.376 6.376,5.376 C7.047,5.376 8.523,5.040 8.523,6.382 ZM14.966,6.382 C14.966,7.791 13.289,7.456 12.819,7.456 C12.148,7.456 10.738,7.724 10.738,6.382 C10.738,5.040 12.349,5.376 12.819,5.376 C13.490,5.376 14.966,5.040 14.966,6.382 ZM27.047,5.376 C28.255,5.241 30.000,6.852 30.000,8.127 L30.000,29.128 C29.799,29.329 29.463,30.000 29.127,30.000 L21.476,30.000 L21.476,23.626 L24.832,23.626 C25.503,23.424 25.772,22.888 25.772,22.485 C25.772,22.083 25.302,21.412 24.832,21.412 L21.476,21.412 L21.476,18.258 L24.832,18.258 C25.503,18.057 25.772,17.520 25.772,17.117 C25.772,16.715 25.302,16.044 24.832,16.044 L21.476,16.044 L21.476,12.890 L24.832,12.890 C25.503,12.689 25.772,12.152 25.772,11.750 C25.772,11.146 25.168,10.676 24.698,10.676 L21.476,10.676 L21.476,5.376 L27.047,5.376 ZM8.523,11.750 C8.523,13.159 6.846,12.823 6.376,12.823 C5.705,12.823 4.295,13.092 4.295,11.750 C4.295,10.341 5.906,10.743 6.376,10.743 C7.047,10.743 8.523,10.408 8.523,11.750 ZM14.966,11.750 C14.966,13.159 13.289,12.823 12.819,12.823 C12.148,12.823 10.738,13.092 10.738,11.750 C10.738,10.341 12.349,10.743 12.819,10.743 C13.490,10.743 14.966,10.408 14.966,11.750 ZM8.523,17.117 C8.523,18.526 6.846,18.191 6.376,18.191 C5.705,18.191 4.295,18.459 4.295,17.117 C4.295,15.708 5.906,16.111 6.376,16.111 C7.047,16.111 8.523,15.775 8.523,17.117 ZM14.966,17.117 C14.966,18.526 13.289,18.191 12.819,18.191 C12.148,18.191 10.738,18.459 10.738,17.117 C10.738,15.708 12.349,16.111 12.819,16.111 C13.490,16.111 14.966,15.775 14.966,17.117 Z"/>
</svg>