<svg 
 xmlns="http://www.w3.org/2000/svg"
 xmlns:xlink="http://www.w3.org/1999/xlink"
 width="30px" height="26px">
<path fill-rule="evenodd"  fill="currentColor"
 d="M23.012,-0.000 C23.294,0.068 23.576,0.068 23.788,0.068 C27.106,0.407 30.000,4.073 30.000,6.381 L30.000,16.700 C29.929,17.039 29.788,17.311 29.788,17.582 C29.647,19.551 26.471,22.674 24.282,22.877 C24.000,22.877 23.576,23.081 23.365,23.081 L6.918,23.081 C6.706,23.149 2.259,26.000 1.412,26.000 C0.988,26.000 -0.000,25.525 -0.000,24.914 L-0.000,6.381 C0.071,6.110 0.141,5.702 0.141,5.499 C0.494,3.123 3.741,0.204 6.212,0.068 C6.424,0.068 6.706,0.068 6.918,-0.000 L23.012,-0.000 ZM19.482,8.621 C19.482,9.572 19.271,10.386 18.423,11.405 C17.929,11.948 17.224,12.287 16.659,12.898 C16.376,13.102 16.447,13.645 16.376,14.052 C16.306,14.663 15.388,15.138 14.965,15.138 C13.835,15.138 13.553,14.188 13.553,13.509 C13.553,12.491 13.835,11.269 14.965,10.454 C15.882,9.708 16.518,9.504 16.518,8.621 C16.518,7.603 15.671,7.196 14.965,7.196 C14.471,7.196 13.835,7.332 13.553,8.078 C13.412,8.350 13.482,8.757 13.341,9.097 C13.059,9.843 12.494,10.047 11.929,10.047 C10.941,10.047 10.518,9.232 10.518,8.553 C10.518,6.178 12.565,4.345 14.965,4.345 C17.576,4.345 19.482,6.313 19.482,8.621 ZM16.447,17.311 C16.447,18.193 15.812,18.736 14.965,18.736 C14.047,18.736 13.553,18.125 13.553,17.311 C13.553,16.428 14.188,15.953 14.965,15.953 C15.882,15.953 16.447,16.564 16.447,17.311 Z"/>
</svg>